<svg xmlns="http://www.w3.org/2000/svg" width="677" height="369" viewBox="0 0 677 369">
<g>
<path d="M 458.74 269.86 C451.97,272.91 448.94,273.18 444.46,271.13 C437.36,267.89 435.24,262.28 439.07,256.90 C440.86,254.39 441.77,254.00 445.82,254.04 C448.39,254.05 451.62,254.71 453.00,255.50 C454.38,256.29 456.93,256.95 458.68,256.96 C463.25,257.02 466.73,252.29 473.45,236.86 L 479.06 223.97 L 475.65 216.24 C473.77,211.98 471.11,206.02 469.75,203.00 C468.38,199.98 462.60,186.93 456.90,174.02 C446.29,149.98 442.61,144.00 438.46,144.00 C437.17,144.00 435.80,143.49 435.42,142.87 C434.94,142.10 434.43,142.26 433.81,143.37 C433.06,144.71 431.07,145.00 422.45,145.00 L 412.00 145.00 L 412.05 176.25 C412.10,203.29 412.34,208.10 413.83,211.98 C414.83,214.60 416.58,217.00 418.02,217.76 C421.45,219.57 427.65,218.47 431.27,215.42 C434.24,212.93 436.50,212.65 436.50,214.79 C436.50,216.93 428.87,225.03 424.98,227.01 C420.06,229.52 411.96,229.64 407.65,227.26 C401.93,224.11 399.98,221.69 397.98,215.20 C396.18,209.38 396.00,205.86 396.00,176.89 L 396.00 145.00 L 389.00 145.00 C382.97,145.00 382.00,144.76 382.00,143.23 C382.00,142.20 383.57,140.63 385.75,139.48 C393.92,135.17 405.24,120.66 407.38,111.75 C407.82,109.90 408.68,109.00 410.02,109.00 C411.91,109.00 412.00,109.71 412.00,123.94 C412.00,132.34 412.42,139.14 412.95,139.47 C413.48,139.80 427.65,140.05 444.45,140.03 C470.52,140.01 475.00,140.21 475.00,141.46 C475.00,142.33 473.58,143.18 471.44,143.58 C466.70,144.47 464.65,147.63 465.59,152.62 C466.22,155.99 467.27,158.71 472.50,170.50 C473.23,172.15 476.63,179.91 480.05,187.75 C483.47,195.59 486.46,202.00 486.69,202.00 C487.20,202.00 492.49,189.59 496.49,179.00 C497.42,176.52 498.79,173.15 499.53,171.50 C500.28,169.85 502.01,165.57 503.38,162.00 C508.40,148.93 507.86,144.36 501.26,143.81 C498.64,143.59 497.42,142.97 497.18,141.75 C496.88,140.15 498.09,140.00 511.50,140.00 C524.91,140.00 526.12,140.15 525.81,141.75 C525.62,142.80 524.40,143.63 522.76,143.81 C519.22,144.22 514.92,149.48 512.60,156.23 C511.61,159.13 509.77,163.75 508.51,166.50 C507.26,169.25 505.46,173.52 504.52,176.00 C503.58,178.48 501.95,182.42 500.91,184.77 C499.87,187.11 498.11,191.71 497.00,194.99 C495.90,198.27 493.87,203.41 492.50,206.41 C491.12,209.41 490.00,212.29 490.00,212.81 C490.00,213.73 487.71,219.36 483.92,227.74 C482.86,230.07 482.00,232.38 482.00,232.87 C482.00,233.71 480.33,237.60 474.01,251.50 C470.15,259.98 463.84,267.57 458.74,269.86 ZM 326.00 266.61 C326.00,267.75 322.22,268.00 304.56,268.00 C289.91,268.00 282.90,267.65 282.43,266.89 C281.62,265.58 283.72,264.04 286.35,264.02 C289.49,263.99 293.89,260.74 294.97,257.65 C295.57,255.94 296.00,244.46 296.00,230.35 L 296.00 206.00 L 311.96 206.00 L 313.90 209.75 C316.46,214.71 323.66,221.46 327.90,222.87 C338.70,226.46 348.83,221.40 354.40,209.61 C363.26,190.88 360.56,164.74 348.47,152.25 C343.32,146.93 342.80,146.73 334.08,146.56 C331.26,146.51 330.53,146.04 329.95,143.87 C328.72,139.33 329.96,138.72 340.65,138.63 C349.68,138.56 350.99,138.80 356.37,141.52 C363.17,144.97 367.78,149.91 371.48,157.73 C374.90,164.96 376.00,171.10 376.00,182.98 C376.00,199.98 370.05,213.23 358.57,221.83 C346.29,231.01 330.04,231.42 317.20,222.86 C314.83,221.29 312.70,220.00 312.45,220.00 C312.20,220.00 312.00,228.37 312.00,238.60 L 312.00 257.20 L 315.40 260.60 C317.27,262.47 319.71,264.00 320.82,264.00 C323.89,264.00 326.00,265.06 326.00,266.61 ZM 305.17 193.35 C304.17,194.26 301.72,195.00 299.73,195.00 L 296.11 195.00 L 295.81 173.42 C295.52,153.19 295.37,151.74 293.50,150.34 C292.21,149.38 290.17,149.02 287.75,149.33 C284.97,149.69 284.00,149.45 284.00,148.40 C284.00,147.63 284.13,147.00 284.29,147.00 C284.45,147.00 288.29,145.46 292.83,143.57 C297.37,141.68 302.42,139.85 304.04,139.49 L 307.00 138.84 L 307.00 165.27 C307.00,189.60 306.86,191.82 305.17,193.35 Z" fill="rgb(52,54,58)"/>
<path d="M 206.00 247.54 C198.88,249.34 182.03,249.27 175.00,247.42 C157.80,242.89 149.99,234.20 153.01,222.95 C153.88,219.73 156.04,216.87 162.07,210.93 C168.86,204.25 169.72,203.04 168.04,202.51 C166.97,202.17 164.89,200.47 163.42,198.73 C161.01,195.85 160.81,195.01 161.30,189.53 C161.83,183.54 161.89,183.45 169.32,176.41 L 176.81 169.32 L 173.66 167.52 C159.41,159.39 154.58,139.12 163.52,124.97 C167.06,119.36 175.59,113.06 182.60,110.87 C193.26,107.54 210.53,108.84 217.65,113.51 C219.32,114.60 222.87,115.00 230.96,115.00 L 242.00 115.00 L 242.00 121.84 L 235.50 122.54 C231.93,122.92 229.00,123.65 229.00,124.15 C229.00,124.66 229.74,126.21 230.65,127.59 C232.81,130.89 233.61,143.32 232.07,149.65 C229.53,160.06 219.57,169.43 207.78,172.49 C201.37,174.15 196.07,174.21 183.08,172.77 C181.23,172.56 179.85,173.55 177.27,176.90 C173.30,182.07 173.26,185.38 177.16,188.28 C179.52,190.03 181.79,190.30 197.16,190.62 C218.16,191.06 223.42,191.53 228.94,193.48 C245.94,199.48 247.89,219.00 232.97,233.84 C226.17,240.61 218.96,244.27 206.00,247.54 ZM 281.25 202.36 C279.19,202.70 276.83,202.88 276.00,202.77 C275.17,202.65 267.61,202.42 259.18,202.25 C245.32,201.98 243.89,201.78 244.19,200.22 C244.38,199.22 245.61,198.37 247.12,198.20 C248.56,198.03 251.03,196.54 252.61,194.88 L 255.50 191.87 L 255.78 159.69 C256.03,130.50 255.89,127.17 254.28,124.00 C252.71,120.92 251.98,120.46 248.19,120.19 C245.77,120.02 244.03,119.42 244.22,118.84 C244.65,117.55 266.72,109.00 269.63,109.00 C272.18,109.00 272.89,111.13 272.35,117.10 C271.70,124.38 272.51,124.64 278.13,118.96 C285.00,112.02 290.35,109.74 301.07,109.20 C308.29,108.84 310.27,109.10 313.66,110.83 C318.10,113.09 324.00,119.22 324.00,121.57 C324.00,124.76 326.76,123.83 332.02,118.87 C339.59,111.73 346.07,109.00 355.45,109.00 C370.04,109.00 376.39,114.27 379.97,129.32 C381.92,137.53 381.98,138.54 380.57,139.57 C378.55,141.05 378.50,146.87 380.50,147.64 C381.76,148.12 382.00,151.33 382.00,167.96 C382.00,192.64 383.13,196.41 390.98,198.01 C392.35,198.29 393.63,199.30 393.81,200.26 C394.11,201.81 393.16,202.00 385.07,202.00 C376.07,202.00 374.85,201.55 377.25,199.15 C378.14,198.26 378.50,193.53 378.50,182.70 C378.50,169.32 378.22,166.73 376.18,161.08 C374.02,155.08 369.99,148.15 365.97,143.50 C364.85,142.20 364.00,138.86 363.55,134.00 C362.62,123.85 360.30,120.42 353.40,118.98 C346.02,117.45 339.89,119.08 333.59,124.28 C330.79,126.58 328.21,128.87 327.86,129.36 C327.52,129.85 327.29,144.41 327.36,161.72 L 327.50 193.19 L 330.50 195.59 C332.15,196.91 334.75,197.99 336.28,198.00 C338.90,198.00 341.01,200.32 339.64,201.69 C338.83,202.50 308.77,202.99 302.75,202.29 C299.60,201.93 298.00,201.27 298.00,200.34 C298.00,198.89 298.57,198.59 303.28,197.56 C304.94,197.19 306.85,195.65 308.03,193.72 C309.86,190.71 309.99,188.56 310.00,160.95 L 310.00 131.39 L 307.35 126.08 C305.36,122.07 303.84,120.41 301.13,119.28 C296.88,117.50 289.99,117.95 285.00,120.33 C280.58,122.44 273.13,129.02 272.92,131.00 C272.83,131.82 272.82,145.92 272.88,162.33 L 273.00 192.15 L 275.92 195.08 C277.89,197.04 279.86,198.00 281.92,198.00 C284.26,198.00 285.00,198.45 285.00,199.87 C285.00,201.25 284.02,201.90 281.25,202.36 ZM 184.94 238.58 C203.21,241.90 220.35,238.64 228.19,230.34 C233.59,224.63 234.74,215.65 230.61,211.52 C226.96,207.87 222.35,207.15 197.73,206.39 L 174.95 205.69 L 172.43 208.07 C171.03,209.38 168.98,212.48 167.87,214.97 C162.77,226.36 169.59,235.80 184.94,238.58 ZM 190.50 168.10 C195.62,170.48 199.16,170.47 203.79,168.10 C208.95,165.45 211.40,162.44 213.87,155.71 C217.85,144.88 215.74,126.85 209.66,119.78 C200.64,109.29 184.76,111.30 178.86,123.68 C176.89,127.80 176.56,130.10 176.55,139.50 C176.54,148.84 176.88,151.25 178.82,155.50 C181.68,161.76 185.35,165.72 190.50,168.10 Z" fill="rgb(200,167,95)"/>
<path d="M 242.00 121.74 L 242.00 115.32 C242.46,115.44 242.74,115.57 242.83,115.73 C243.64,117.03 248.17,116.26 255.62,113.58 C249.83,115.84 244.43,118.21 244.22,118.84 C244.03,119.40 245.63,119.97 247.89,120.17 C246.39,120.24 244.75,120.60 243.80,121.12 C243.40,121.33 242.78,121.54 242.00,121.74 ZM 239.69 115.00 L 230.96 115.00 C229.39,115.00 227.99,114.98 226.74,114.95 C228.02,114.95 229.48,114.93 231.16,114.89 C234.83,114.81 237.70,114.85 239.69,115.00 ZM 233.10 122.86 C233.85,122.74 234.65,122.63 235.50,122.54 L 241.21 121.93 C239.57,122.28 237.50,122.57 235.58,122.68 C234.72,122.73 233.88,122.79 233.10,122.86 ZM 259.88 111.97 C263.43,110.59 266.04,109.67 267.94,109.31 C266.07,109.80 263.10,110.79 259.88,111.97 ZM 230.76 127.76 C230.72,127.70 230.69,127.65 230.65,127.59 C229.74,126.21 229.00,124.66 229.00,124.15 C229.00,124.10 229.03,124.05 229.08,124.00 C229.18,124.67 229.70,125.92 230.46,127.21 C230.56,127.38 230.66,127.56 230.76,127.76 ZM 232.71 136.89 C233.07,141.34 232.90,146.21 232.07,149.65 C232.87,146.34 233.04,141.36 232.71,136.89 ZM 271.89 110.20 C272.66,111.40 272.67,113.64 272.35,117.10 C272.67,113.59 272.55,111.40 271.89,110.20 ZM 203.99 109.44 C196.77,108.59 188.63,108.99 182.60,110.87 C188.66,108.98 196.77,108.58 203.99,109.44 ZM 251.88 120.94 C252.84,121.46 253.44,122.35 254.28,124.00 C253.48,122.44 252.79,121.50 251.88,120.94 ZM 244.95 199.06 C244.56,199.38 244.29,199.76 244.20,200.18 C244.20,200.16 244.20,200.15 244.21,200.14 C244.28,199.75 244.55,199.38 244.95,199.06 Z" fill="rgb(222,208,183)"/>
<path d="M 0.00 184.50 L 0.00 0.00 L 338.50 0.00 L 677.00 0.00 L 677.00 184.50 L 677.00 369.00 L 338.50 369.00 L 0.00 369.00 L 0.00 184.50 ZM 458.74 269.86 C463.84,267.57 470.15,259.98 474.01,251.50 C480.33,237.60 482.00,233.71 482.00,232.87 C482.00,232.38 482.86,230.07 483.92,227.74 C487.71,219.36 490.00,213.73 490.00,212.81 C490.00,212.29 491.12,209.41 492.50,206.41 C493.87,203.41 495.90,198.27 497.00,194.99 C498.11,191.71 499.87,187.11 500.91,184.77 C501.95,182.42 503.58,178.48 504.52,176.00 C505.46,173.52 507.26,169.25 508.51,166.50 C509.77,163.75 511.61,159.13 512.60,156.23 C514.92,149.48 519.22,144.22 522.76,143.81 C524.40,143.63 525.62,142.80 525.81,141.75 C526.12,140.15 524.91,140.00 511.50,140.00 C498.09,140.00 496.88,140.15 497.18,141.75 C497.42,142.97 498.64,143.59 501.26,143.81 C507.86,144.36 508.40,148.93 503.38,162.00 C502.01,165.57 500.28,169.85 499.53,171.50 C498.79,173.15 497.42,176.52 496.49,179.00 C492.49,189.59 487.20,202.00 486.69,202.00 C486.46,202.00 483.47,195.59 480.05,187.75 C476.63,179.91 473.23,172.15 472.50,170.50 C467.27,158.71 466.22,155.99 465.59,152.62 C464.65,147.63 466.70,144.47 471.44,143.58 C473.58,143.18 475.00,142.33 475.00,141.46 C475.00,140.21 470.52,140.01 444.45,140.03 C427.65,140.05 413.48,139.80 412.95,139.47 C412.42,139.14 412.00,132.34 412.00,123.94 C412.00,109.71 411.91,109.00 410.02,109.00 C408.68,109.00 407.82,109.90 407.38,111.75 C405.24,120.66 393.92,135.17 385.75,139.48 C383.57,140.63 382.00,142.20 382.00,143.23 C382.00,144.76 382.97,145.00 389.00,145.00 L 396.00 145.00 L 396.00 176.89 C396.00,205.86 396.18,209.38 397.98,215.20 C399.98,221.69 401.93,224.11 407.65,227.26 C411.96,229.64 420.06,229.52 424.98,227.01 C428.87,225.03 436.50,216.93 436.50,214.79 C436.50,212.65 434.24,212.93 431.27,215.42 C427.65,218.47 421.45,219.57 418.02,217.76 C416.58,217.00 414.83,214.60 413.83,211.98 C412.34,208.10 412.10,203.29 412.05,176.25 L 412.00 145.00 L 422.45 145.00 C431.07,145.00 433.06,144.71 433.81,143.37 C434.43,142.26 434.94,142.10 435.42,142.87 C435.80,143.49 437.17,144.00 438.46,144.00 C442.61,144.00 446.29,149.98 456.90,174.02 C462.60,186.93 468.38,199.98 469.75,203.00 C471.11,206.02 473.77,211.98 475.65,216.24 L 479.06 223.97 L 473.45 236.86 C466.73,252.29 463.25,257.02 458.68,256.96 C456.93,256.95 454.38,256.29 453.00,255.50 C451.62,254.71 448.39,254.05 445.82,254.04 C441.77,254.00 440.86,254.39 439.07,256.90 C435.24,262.28 437.36,267.89 444.46,271.13 C448.94,273.18 451.97,272.91 458.74,269.86 ZM 326.00 266.61 C326.00,265.06 323.89,264.00 320.82,264.00 C319.71,264.00 317.27,262.47 315.40,260.60 L 312.00 257.20 L 312.00 238.60 C312.00,228.37 312.20,220.00 312.45,220.00 C312.70,220.00 314.83,221.29 317.20,222.86 C330.04,231.42 346.29,231.01 358.57,221.83 C370.05,213.23 376.00,199.98 376.00,182.98 C376.00,171.10 374.90,164.96 371.48,157.73 C367.78,149.91 363.17,144.97 356.37,141.52 C350.99,138.80 349.68,138.56 340.65,138.63 C329.96,138.72 328.72,139.33 329.95,143.87 C330.53,146.04 331.26,146.51 334.08,146.56 C342.80,146.73 343.32,146.93 348.47,152.25 C360.56,164.74 363.26,190.88 354.40,209.61 C348.83,221.40 338.70,226.46 327.90,222.87 C323.66,221.46 316.46,214.71 313.90,209.75 L 311.96 206.00 L 303.98 206.00 L 296.00 206.00 L 296.00 230.35 C296.00,244.46 295.57,255.94 294.97,257.65 C293.89,260.74 289.49,263.99 286.35,264.02 C283.72,264.04 281.62,265.58 282.43,266.89 C282.90,267.65 289.91,268.00 304.56,268.00 C322.22,268.00 326.00,267.75 326.00,266.61 ZM 206.00 247.54 C218.96,244.27 226.17,240.61 232.97,233.84 C247.89,219.00 245.94,199.48 228.94,193.48 C223.42,191.53 218.16,191.06 197.16,190.62 C181.79,190.30 179.52,190.03 177.16,188.28 C173.26,185.38 173.30,182.07 177.27,176.90 C179.85,173.55 181.23,172.56 183.08,172.77 C196.07,174.21 201.37,174.15 207.78,172.49 C219.57,169.43 229.53,160.06 232.07,149.65 C233.67,143.07 232.82,131.20 230.46,127.21 C229.44,125.48 228.84,123.82 229.13,123.53 C229.42,123.24 232.33,122.86 235.58,122.68 C238.84,122.50 242.53,121.79 243.80,121.12 C245.06,120.44 247.53,120.02 249.30,120.19 C251.81,120.43 252.88,121.26 254.28,124.00 C255.89,127.17 256.03,130.50 255.78,159.69 L 255.50 191.87 L 252.61 194.88 C251.03,196.54 248.56,198.03 247.12,198.20 C245.67,198.37 244.38,199.22 244.21,200.14 C243.93,201.59 245.89,201.82 261.70,202.17 C282.92,202.64 285.00,202.44 285.00,199.89 C285.00,198.45 284.27,198.00 281.92,198.00 C279.86,198.00 277.89,197.04 275.92,195.08 L 273.00 192.15 L 272.88 162.33 C272.82,145.92 272.83,131.82 272.92,131.00 C273.13,129.02 280.58,122.44 285.00,120.33 C289.99,117.95 296.88,117.50 301.13,119.28 C303.84,120.41 305.36,122.07 307.35,126.08 L 310.00 131.39 L 310.00 160.95 C309.99,188.56 309.86,190.71 308.03,193.72 C306.85,195.65 304.94,197.19 303.28,197.56 C298.57,198.59 298.00,198.89 298.00,200.34 C298.00,201.27 299.60,201.93 302.75,202.29 C308.77,202.99 338.83,202.50 339.64,201.69 C341.01,200.32 338.90,198.00 336.28,198.00 C334.75,197.99 332.15,196.91 330.50,195.59 L 327.50 193.19 L 327.36 161.72 C327.29,144.41 327.52,129.85 327.86,129.36 C328.21,128.87 330.79,126.58 333.59,124.28 C339.89,119.08 346.02,117.45 353.40,118.98 C360.30,120.42 362.62,123.85 363.55,134.00 C364.00,138.86 364.85,142.20 365.97,143.50 C369.99,148.15 374.02,155.08 376.18,161.08 C378.22,166.73 378.50,169.32 378.50,182.70 C378.50,193.53 378.14,198.26 377.25,199.15 C374.85,201.55 376.07,202.00 385.07,202.00 C393.16,202.00 394.11,201.81 393.81,200.26 C393.63,199.30 392.35,198.29 390.98,198.01 C383.13,196.41 382.00,192.64 382.00,167.96 C382.00,151.33 381.76,148.12 380.50,147.64 C378.50,146.87 378.55,141.05 380.57,139.57 C381.98,138.54 381.92,137.53 379.97,129.32 C376.39,114.27 370.04,109.00 355.45,109.00 C346.07,109.00 339.59,111.73 332.02,118.87 C326.76,123.83 324.00,124.76 324.00,121.57 C324.00,119.22 318.10,113.09 313.66,110.83 C310.27,109.10 308.29,108.84 301.07,109.20 C290.35,109.74 285.00,112.02 278.13,118.96 C272.51,124.64 271.70,124.38 272.35,117.10 C273.19,107.86 271.76,107.31 259.48,112.13 C249.73,115.95 243.77,117.24 242.83,115.73 C242.40,115.03 238.28,114.73 231.16,114.89 C222.54,115.09 219.64,114.81 217.77,113.58 C210.53,108.84 193.34,107.52 182.60,110.87 C175.59,113.06 167.06,119.36 163.52,124.97 C154.58,139.12 159.41,159.39 173.66,167.52 L 176.81 169.32 L 169.32 176.41 C161.89,183.45 161.83,183.54 161.30,189.53 C160.81,195.01 161.01,195.85 163.42,198.73 C164.89,200.47 166.97,202.17 168.04,202.51 C169.72,203.04 168.86,204.25 162.07,210.93 C156.04,216.87 153.88,219.73 153.01,222.95 C149.99,234.20 157.80,242.89 175.00,247.42 C182.03,249.27 198.88,249.34 206.00,247.54 ZM 305.17 193.35 C306.86,191.82 307.00,189.60 307.00,165.27 L 307.00 138.84 L 304.04 139.49 C302.42,139.85 297.37,141.68 292.83,143.57 C288.29,145.46 284.45,147.00 284.29,147.00 C284.13,147.00 284.00,147.63 284.00,148.40 C284.00,149.45 284.97,149.69 287.75,149.33 C290.17,149.02 292.21,149.38 293.50,150.34 C295.37,151.74 295.52,153.19 295.81,173.42 L 296.11 195.00 L 299.73 195.00 C301.72,195.00 304.17,194.26 305.17,193.35 ZM 184.94 238.58 C169.59,235.80 162.77,226.36 167.87,214.97 C168.98,212.48 171.03,209.38 172.43,208.07 L 174.95 205.69 L 197.73 206.39 C222.35,207.15 226.96,207.87 230.61,211.52 C234.74,215.65 233.59,224.63 228.19,230.34 C220.35,238.64 203.21,241.90 184.94,238.58 ZM 190.50 168.10 C185.35,165.72 181.68,161.76 178.82,155.50 C176.88,151.25 176.54,148.84 176.55,139.50 C176.56,130.10 176.89,127.80 178.86,123.68 C184.76,111.30 200.64,109.29 209.66,119.78 C215.74,126.85 217.85,144.88 213.87,155.71 C211.40,162.44 208.95,165.45 203.79,168.10 C199.16,170.47 195.62,170.48 190.50,168.10 Z" fill="rgb(254,254,254)"/>
</g>
</svg>